<svg xmlns="http://www.w3.org/2000/svg" width="389.129" height="65.669" viewBox="0 0 389.129 65.669">
  <g id="Group_1460" data-name="Group 1460" transform="translate(-38.855 -366.817)">
    <path id="Path_3964" data-name="Path 3964" d="M230.9,427.792a4.747,4.747,0,0,0,4.716,4.695h55.543A4.777,4.777,0,0,0,296,427.792v-56.28a4.747,4.747,0,0,0-4.716-4.695H235.744a4.777,4.777,0,0,0-4.847,4.695ZM318.076,377.4l7.6,12.234,6.288-3.967L322.4,370.454h-8.581l-12.51,18.583,6.092,4.5Zm86.525,4.828v4.894h7.6v-4.894H424.9v-6.878H412.2v-4.894h-7.6v4.894H389.929v-4.894h-7.6v4.894H369.624v6.878h12.706v4.894h7.6v-4.894Zm-49.19,9.192V411.06h7.6V384.54H351.874v-5.555h11.921v-6.878H332.355v6.878h11.921v5.555H333.141v26.52h7.6V391.418Zm-278.3-4.365a5.7,5.7,0,0,0,5.7-5.621,5.666,5.666,0,1,0-5.7,5.621Zm168.267,0a5.656,5.656,0,1,1,5.567-5.621A5.632,5.632,0,0,1,245.373,387.054ZM122.1,422.832h9.563V407.423h.131l11.332,15.409H154.46L141.688,405.5l11.921-14.152H142.736l-11.069,13.491v-28.3H122.1Zm-83.248,0H67.543v-9.325H48.876V376.539H38.855ZM212.23,418v4.828h8.908V376.539h-9.563v18.583c-1.637-2.712-4.65-4.7-9.1-4.7-9.039,0-15.2,7.143-15.2,16.6s6.157,16.6,15.2,16.6C207.646,423.625,210.855,420.98,212.23,418Zm185.034-2.91c3.538,6.679,11.659,11.507,24.039,11.771h4.192v-7.01h-2.947c-9.694,0-16.113-2.91-19.649-8.8h25.086v-6.878h-8.45V390.426h-18.47v-4.894h-7.6v4.894H374.995v13.756h-8.449v6.878h25.086c-3.537,5.885-9.955,8.8-19.649,8.8h-2.947v7.01h4.192C385.606,426.6,393.727,421.773,397.264,415.094Zm-69.691,8.663-5.437-5.555c4.912-5.357,8.646-12.3,8.646-20.5v-1.455h-7.991l-1.506-8.532h-7.467l1.507,8.532H304.584v6.877h18.078a26.447,26.447,0,0,1-5.5,9.921l-5.5-5.621-5.043,5.158,15.916,16.335ZM176.664,412.449a8.221,8.221,0,0,1-7.2,3.373c-3.669,0-6.812-2.116-7.336-5.754h22.27v-2.976c0-10.118-6.092-16.732-15.588-16.732-9.563,0-16.375,7.275-16.375,17,0,10.053,7.2,16.27,16.768,16.27,5.765,0,10.742-2.249,13.82-6.283ZM87,422.832h9.563V405.9c0-3.637,1.7-6.613,5.829-6.613,4.061,0,5.175,3.042,5.175,6.217v17.327h9.562V402.264c0-6.547-3.537-11.573-10.807-11.573a12.043,12.043,0,0,0-9.957,5.092h-.131v-4.431H87Zm169.183,0V391.352h9.236v4.431h.131a12.04,12.04,0,0,1,9.956-5.092c7.271,0,10.808,5.026,10.808,11.573v20.568h-9.563V405.5c0-3.175-1.114-6.217-5.174-6.217-4.126,0-5.83,2.976-5.83,6.613v16.931Zm-6.025,0h-9.563V391.352h9.563ZM72.325,391.352v31.479h9.563V391.352ZM351.874,405.7V394.724h-7.6v15.013c0,6.944-4,10.118-10.676,10.118h-2.947v7.01h1.964c8.908,0,13.886-2.976,16.506-7.538l12.51,8.134,4.126-6.283-14.147-8.994A45.685,45.685,0,0,0,351.874,405.7Zm30.719-1.521V397.3h10.873v6.878Zm29.344,0H401.064V397.3h10.873Zm-249.813.2c.2-3.439,2.489-6.481,6.681-6.481a6.323,6.323,0,0,1,6.353,6.481Zm34.845,2.646c0-4.96,2.882-8.6,7.729-8.6s7.663,3.637,7.663,8.6-2.816,8.6-7.663,8.6S196.969,411.985,196.969,407.026Z" transform="translate(0 0)" fill="#0a66c1"/>
  </g>
</svg>
